<svg width="199" height="34" viewBox="0 0 199 34" fill="none" xmlns="http://www.w3.org/2000/svg">
<path d="M6.208 33.04C5.504 33.04 4.912 32.784 4.432 32.272C3.952 31.76 3.712 31.12 3.712 30.352V23.248C3.712 22.32 3.648 21.712 3.52 21.424C3.424 21.136 3.168 20.992 2.752 20.992H1.648C1.296 20.992 0.992 20.864 0.736 20.608C0.512 20.32 0.4 19.968 0.4 19.552C0.4 19.168 0.512 18.848 0.736 18.592C0.992 18.304 1.296 18.16 1.648 18.16H2.752C3.168 18.16 3.424 18.016 3.52 17.728C3.648 17.44 3.712 16.832 3.712 15.904V8.848C3.712 8.08 3.952 7.44 4.432 6.928C4.912 6.416 5.504 6.16 6.208 6.16H8.848C9.2 6.16 9.472 6.288 9.664 6.544C9.888 6.768 10 7.056 10 7.408C10 8.144 9.616 8.512 8.848 8.512H7.552C7.04 8.512 6.688 8.608 6.496 8.8C6.336 8.992 6.256 9.344 6.256 9.856V15.856C6.256 16.336 6.208 16.944 6.112 17.68C6.016 18.416 5.664 19.04 5.056 19.552C5.664 20.064 6.016 20.704 6.112 21.472C6.208 22.208 6.256 22.816 6.256 23.296V29.344C6.256 29.856 6.336 30.208 6.496 30.4C6.688 30.592 7.04 30.688 7.552 30.688H8.848C9.616 30.688 10 31.056 10 31.792C10 32.144 9.888 32.432 9.664 32.656C9.472 32.912 9.2 33.04 8.848 33.04H6.208ZM24.544 28.48C24.128 28.48 23.76 28.336 23.44 28.048C23.12 27.76 22.96 27.376 22.96 26.896C22.96 26.736 22.992 26.528 23.056 26.272L29.056 10C29.28 9.456 29.616 9.04 30.064 8.752C30.512 8.464 30.992 8.32 31.504 8.32C32.016 8.32 32.496 8.464 32.944 8.752C33.424 9.04 33.776 9.456 34 10L40.384 26.272C40.448 26.528 40.48 26.736 40.48 26.896C40.48 27.376 40.32 27.76 40 28.048C39.68 28.336 39.312 28.48 38.896 28.48C38.608 28.48 38.304 28.4 37.984 28.24C37.696 28.112 37.472 27.888 37.312 27.568L35.728 23.344C35.696 23.152 35.568 23.056 35.344 23.056H28C27.776 23.056 27.632 23.152 27.568 23.344L26.128 27.568C25.968 27.888 25.728 28.112 25.408 28.24C25.12 28.4 24.832 28.48 24.544 28.48ZM29.44 20.176H33.76C33.952 20.176 34.096 20.112 34.192 19.984C34.32 19.824 34.352 19.632 34.288 19.408L31.984 12.832C31.888 12.512 31.744 12.352 31.552 12.352C31.328 12.352 31.168 12.512 31.072 12.832L28.912 19.456C28.848 19.648 28.864 19.824 28.96 19.984C29.088 20.112 29.248 20.176 29.44 20.176ZM45.2931 28.48C44.8771 28.48 44.4931 28.352 44.1411 28.096C43.7891 27.84 43.6131 27.456 43.6131 26.944V10.768C43.6131 10.032 43.8371 9.488 44.2851 9.136C44.7651 8.752 45.2771 8.56 45.8211 8.56C46.6531 8.56 47.2611 8.88 47.6451 9.52L55.5651 21.952C55.7251 22.208 55.9011 22.336 56.0931 22.336C56.3811 22.336 56.5251 22.112 56.5251 21.664L56.3331 10.096C56.3331 9.584 56.5091 9.2 56.8611 8.944C57.2131 8.688 57.5971 8.56 58.0131 8.56C58.4291 8.56 58.8131 8.688 59.1651 8.944C59.5171 9.2 59.6931 9.584 59.6931 10.096V26.368C59.6931 27.072 59.4851 27.6 59.0691 27.952C58.6531 28.304 58.1731 28.48 57.6291 28.48C57.2451 28.48 56.8611 28.384 56.4771 28.192C56.1251 28.032 55.8211 27.76 55.5651 27.376L47.7891 15.28C47.6291 15.024 47.4531 14.896 47.2611 14.896C46.9731 14.896 46.8291 15.12 46.8291 15.568L46.9731 26.944C46.9731 27.456 46.7971 27.84 46.4451 28.096C46.1251 28.352 45.7411 28.48 45.2931 28.48ZM77.0118 10.144C77.0118 9.632 77.1878 9.248 77.5398 8.992C77.8918 8.704 78.2758 8.56 78.6918 8.56C79.1078 8.56 79.4758 8.688 79.7958 8.944C80.1478 9.2 80.3238 9.6 80.3238 10.144V20.656C80.3238 22.544 79.9238 24.064 79.1238 25.216C78.3238 26.368 77.2998 27.2 76.0518 27.712C74.8038 28.224 73.4918 28.48 72.1158 28.48C70.5798 28.48 69.1878 28.224 67.9398 27.712C66.7238 27.2 65.7638 26.368 65.0598 25.216C64.3558 24.032 64.0038 22.496 64.0038 20.608V10.144C64.0038 9.6 64.1798 9.216 64.5318 8.992C64.8838 8.736 65.2678 8.608 65.6838 8.608C66.0998 8.608 66.4678 8.736 66.7878 8.992C67.1398 9.216 67.3158 9.6 67.3158 10.144V20.608C67.3158 22.304 67.7318 23.552 68.5638 24.352C69.4278 25.12 70.6118 25.504 72.1158 25.504C73.4598 25.504 74.6118 25.12 75.5718 24.352C76.5318 23.552 77.0118 22.32 77.0118 20.656V10.144ZM86.3088 28.48C85.8928 28.48 85.5088 28.352 85.1568 28.096C84.8048 27.84 84.6288 27.456 84.6288 26.944V10.768C84.6288 10.032 84.8528 9.488 85.3008 9.136C85.7808 8.752 86.2928 8.56 86.8368 8.56C87.6688 8.56 88.2768 8.88 88.6608 9.52L96.5807 21.952C96.7408 22.208 96.9168 22.336 97.1088 22.336C97.3968 22.336 97.5408 22.112 97.5408 21.664L97.3488 10.096C97.3488 9.584 97.5248 9.2 97.8768 8.944C98.2288 8.688 98.6128 8.56 99.0288 8.56C99.4448 8.56 99.8288 8.688 100.181 8.944C100.533 9.2 100.709 9.584 100.709 10.096V26.368C100.709 27.072 100.501 27.6 100.085 27.952C99.6688 28.304 99.1888 28.48 98.6448 28.48C98.2608 28.48 97.8768 28.384 97.4928 28.192C97.1408 28.032 96.8368 27.76 96.5807 27.376L88.8047 15.28C88.6448 15.024 88.4688 14.896 88.2768 14.896C87.9888 14.896 87.8448 15.12 87.8448 15.568L87.9888 26.944C87.9888 27.456 87.8128 27.84 87.4608 28.096C87.1408 28.352 86.7568 28.48 86.3088 28.48ZM119.803 26.944C119.259 27.36 118.411 27.712 117.259 28C116.107 28.32 114.971 28.48 113.851 28.48C111.995 28.48 110.331 28.048 108.859 27.184C107.387 26.32 106.219 25.12 105.355 23.584C104.491 22.048 104.059 20.288 104.059 18.304C104.059 16.352 104.475 14.624 105.307 13.12C106.139 11.616 107.307 10.448 108.811 9.616C110.347 8.752 112.123 8.32 114.139 8.32C114.939 8.32 115.723 8.384 116.491 8.512C117.291 8.64 118.091 8.864 118.891 9.184C119.211 9.344 119.435 9.568 119.563 9.856C119.723 10.112 119.803 10.368 119.803 10.624C119.803 11.04 119.659 11.408 119.371 11.728C119.115 12.048 118.763 12.208 118.315 12.208C118.123 12.208 117.899 12.16 117.643 12.064C117.131 11.872 116.523 11.696 115.819 11.536C115.147 11.376 114.475 11.296 113.803 11.296C112.523 11.296 111.403 11.632 110.443 12.304C109.483 12.944 108.731 13.808 108.187 14.896C107.675 15.984 107.419 17.184 107.419 18.496C107.419 20.448 108.011 22.112 109.195 23.488C110.379 24.864 111.947 25.552 113.899 25.552C114.763 25.552 115.611 25.424 116.443 25.168C117.275 24.88 117.899 24.576 118.315 24.256C118.667 24.064 118.971 23.968 119.227 23.968C119.643 23.968 119.979 24.128 120.235 24.448C120.491 24.736 120.619 25.072 120.619 25.456C120.619 26.032 120.347 26.528 119.803 26.944ZM125.643 28.48C125.227 28.48 124.843 28.336 124.491 28.048C124.139 27.792 123.963 27.408 123.963 26.896V10.144C123.963 9.6 124.139 9.2 124.491 8.944C124.843 8.688 125.227 8.56 125.643 8.56C126.091 8.56 126.475 8.688 126.795 8.944C127.147 9.2 127.323 9.6 127.323 10.144V26.896C127.323 27.408 127.147 27.792 126.795 28.048C126.475 28.336 126.091 28.48 125.643 28.48ZM134.519 28C133.719 28 133.079 27.76 132.599 27.28C132.119 26.8 131.879 26.16 131.879 25.36V11.296C131.879 10.56 132.119 9.968 132.599 9.52C133.111 9.04 133.703 8.8 134.375 8.8H141.623C142.167 8.8 142.551 8.944 142.775 9.232C143.031 9.488 143.159 9.824 143.159 10.24C143.159 10.624 143.015 10.96 142.727 11.248C142.471 11.536 142.103 11.68 141.623 11.68H136.487C135.655 11.68 135.239 12.096 135.239 12.928V15.568C135.239 16.4 135.623 16.816 136.391 16.816H141.143C141.687 16.816 142.071 16.96 142.295 17.248C142.551 17.536 142.679 17.872 142.679 18.256C142.679 18.608 142.535 18.944 142.247 19.264C141.991 19.552 141.623 19.696 141.143 19.696H136.391C135.623 19.696 135.239 20.096 135.239 20.896V23.824C135.239 24.656 135.639 25.072 136.439 25.072H142.103C142.647 25.072 143.031 25.232 143.255 25.552C143.511 25.84 143.639 26.176 143.639 26.56C143.639 26.944 143.495 27.28 143.207 27.568C142.951 27.856 142.583 28 142.103 28H134.519Z" fill="#DB2423"/>
<path d="M149.318 28.48C148.71 28.48 148.102 28.4 147.494 28.24C146.918 28.08 146.358 27.84 145.814 27.52C145.59 27.36 145.414 27.152 145.286 26.896C145.158 26.608 145.094 26.352 145.094 26.128C145.094 25.68 145.254 25.296 145.574 24.976C145.894 24.624 146.262 24.448 146.678 24.448C146.966 24.448 147.222 24.512 147.446 24.64C148.214 25.056 148.918 25.264 149.558 25.264C150.902 25.264 151.574 24.272 151.574 22.288V10.144C151.574 9.664 151.718 9.28 152.006 8.992C152.326 8.704 152.742 8.56 153.254 8.56C153.766 8.56 154.166 8.704 154.454 8.992C154.774 9.28 154.934 9.664 154.934 10.144V22.384C154.934 24.432 154.374 25.968 153.254 26.992C152.166 27.984 150.854 28.48 149.318 28.48ZM159.638 28.48C159.222 28.48 158.854 28.336 158.534 28.048C158.214 27.76 158.054 27.376 158.054 26.896C158.054 26.736 158.086 26.528 158.15 26.272L164.15 10C164.374 9.456 164.71 9.04 165.158 8.752C165.606 8.464 166.086 8.32 166.598 8.32C167.11 8.32 167.59 8.464 168.038 8.752C168.518 9.04 168.87 9.456 169.094 10L175.478 26.272C175.542 26.528 175.574 26.736 175.574 26.896C175.574 27.376 175.414 27.76 175.094 28.048C174.774 28.336 174.406 28.48 173.99 28.48C173.702 28.48 173.398 28.4 173.078 28.24C172.79 28.112 172.566 27.888 172.406 27.568L170.822 23.344C170.79 23.152 170.662 23.056 170.438 23.056H163.094C162.87 23.056 162.726 23.152 162.662 23.344L161.222 27.568C161.062 27.888 160.822 28.112 160.502 28.24C160.214 28.4 159.926 28.48 159.638 28.48ZM164.534 20.176H168.854C169.046 20.176 169.19 20.112 169.286 19.984C169.414 19.824 169.446 19.632 169.382 19.408L167.078 12.832C166.982 12.512 166.838 12.352 166.646 12.352C166.422 12.352 166.262 12.512 166.166 12.832L164.006 19.456C163.942 19.648 163.958 19.824 164.054 19.984C164.182 20.112 164.342 20.176 164.534 20.176ZM163.766 4.624L168.182 1.12C168.31 1.024 168.47 0.927999 168.662 0.831998C168.886 0.703998 169.11 0.639997 169.334 0.639997C169.718 0.639997 170.054 0.783998 170.342 1.072C170.63 1.36 170.774 1.728 170.774 2.176C170.774 2.656 170.566 3.024 170.15 3.28L165.062 6.304C164.966 6.336 164.87 6.384 164.774 6.448C164.71 6.48 164.598 6.496 164.438 6.496C163.702 6.496 163.334 6.16 163.334 5.488C163.334 5.136 163.478 4.848 163.766 4.624ZM192.348 33.04H189.708C189.388 33.04 189.116 32.912 188.892 32.656C188.668 32.432 188.556 32.144 188.556 31.792C188.556 31.056 188.94 30.688 189.708 30.688H191.004C191.516 30.688 191.852 30.592 192.012 30.4C192.204 30.208 192.3 29.856 192.3 29.344V23.296C192.3 22.816 192.348 22.208 192.444 21.472C192.54 20.704 192.892 20.064 193.5 19.552C192.892 19.04 192.54 18.416 192.444 17.68C192.348 16.944 192.3 16.336 192.3 15.856V9.856C192.3 9.344 192.204 8.992 192.012 8.8C191.852 8.608 191.516 8.512 191.004 8.512H189.708C188.94 8.512 188.556 8.144 188.556 7.408C188.556 7.056 188.668 6.768 188.892 6.544C189.116 6.288 189.388 6.16 189.708 6.16H192.348C193.084 6.16 193.676 6.416 194.124 6.928C194.604 7.44 194.844 8.08 194.844 8.848V15.904C194.844 16.832 194.892 17.44 194.988 17.728C195.116 18.016 195.388 18.16 195.804 18.16H196.908C197.26 18.16 197.548 18.304 197.772 18.592C198.028 18.848 198.156 19.168 198.156 19.552C198.156 19.968 198.028 20.32 197.772 20.608C197.548 20.864 197.26 20.992 196.908 20.992H195.804C195.388 20.992 195.116 21.136 194.988 21.424C194.892 21.712 194.844 22.32 194.844 23.248V30.352C194.844 31.12 194.604 31.76 194.124 32.272C193.676 32.784 193.084 33.04 192.348 33.04Z" fill="white"/>
</svg>
