<svg xmlns="http://www.w3.org/2000/svg" xmlns:xlink="http://www.w3.org/1999/xlink" width="400" zoomAndPan="magnify" viewBox="0 0 300 149.999998" height="200" preserveAspectRatio="xMidYMid meet" version="1.0"><defs><g/><clipPath id="c265333baf"><path d="M 15 15 L 122.25 15 L 122.25 122.25 L 15 122.25 Z M 15 15 " clip-rule="nonzero"/></clipPath></defs><path fill="#ffffff" d="M 80.972656 82.617188 C 79.957031 85.535156 77.601562 86.984375 74.710938 87.289062 C 71.25 87.652344 67.753906 87.640625 64.269531 87.800781 C 63.523438 87.835938 63.394531 87.4375 63.402344 86.804688 C 63.421875 84.628906 63.410156 82.453125 63.410156 80.277344 C 63.433594 80.277344 63.457031 80.277344 63.484375 80.277344 C 63.484375 77.9375 63.5 75.601562 63.472656 73.261719 C 63.464844 72.5 63.839844 72.214844 64.523438 72.253906 C 68.027344 72.453125 71.566406 72.414062 75.023438 72.925781 C 80.097656 73.679688 82.601562 77.933594 80.972656 82.617188 Z M 63.40625 49.945312 C 63.507812 49.871094 63.570312 49.785156 63.632812 49.78125 C 66.996094 49.667969 70.367188 49.480469 73.667969 50.367188 C 76.761719 51.203125 78.355469 53.203125 78.363281 56.171875 C 78.371094 59.460938 76.84375 61.492188 73.632812 62.332031 C 70.292969 63.207031 66.886719 62.890625 63.40625 62.917969 C 63.40625 58.5 63.40625 54.210938 63.40625 49.945312 Z M 84.40625 68.183594 C 83.640625 67.816406 82.855469 67.480469 81.949219 67.070312 C 82.304688 66.855469 82.507812 66.722656 82.71875 66.605469 C 89.949219 62.558594 91.5 53.320312 86.003906 47.125 C 83.394531 44.179688 80.121094 42.570312 76.222656 42.285156 C 75.082031 42.199219 74.679688 41.820312 74.722656 40.648438 C 74.816406 38.363281 74.75 36.074219 74.75 33.738281 C 72.742188 33.738281 70.886719 33.738281 68.882812 33.738281 C 68.882812 36.433594 68.882812 39.039062 68.882812 41.738281 C 67.800781 41.738281 66.863281 41.746094 65.929688 41.738281 C 63.433594 41.714844 63.746094 42.027344 63.726562 39.472656 C 63.714844 37.5625 63.722656 35.648438 63.722656 33.738281 C 61.695312 33.738281 59.867188 33.738281 57.9375 33.738281 C 57.9375 35.960938 57.875 38.097656 57.960938 40.222656 C 58.007812 41.378906 57.710938 41.796875 56.480469 41.765625 C 53.03125 41.679688 49.578125 41.734375 46.128906 41.738281 C 45.691406 41.738281 45.257812 41.777344 44.828125 41.800781 C 44.828125 44.484375 44.828125 47.046875 44.828125 49.699219 C 46.695312 49.699219 48.457031 49.6875 50.222656 49.699219 C 51.96875 49.710938 52.402344 50.152344 52.40625 51.890625 C 52.417969 57.515625 52.425781 63.136719 52.425781 68.761719 C 52.425781 74.265625 52.410156 79.769531 52.40625 85.273438 C 52.402344 87.441406 52.082031 87.78125 49.925781 87.789062 C 48.21875 87.796875 46.515625 87.789062 44.832031 87.789062 C 44.832031 90.585938 44.832031 93.144531 44.832031 95.796875 C 48.71875 95.796875 52.492188 95.796875 56.269531 95.796875 C 57.925781 95.796875 57.925781 95.800781 57.929688 97.476562 C 57.929688 99.472656 57.929688 101.472656 57.929688 103.511719 C 59.945312 103.511719 61.769531 103.511719 63.730469 103.511719 C 63.730469 102.992188 63.730469 102.550781 63.730469 102.105469 C 63.730469 100.382812 63.761719 98.65625 63.714844 96.929688 C 63.691406 96.082031 63.972656 95.734375 64.84375 95.785156 C 65.746094 95.839844 66.65625 95.863281 67.550781 95.773438 C 68.613281 95.671875 69.007812 95.992188 68.957031 97.121094 C 68.871094 99.238281 68.933594 101.363281 68.933594 103.492188 C 70.957031 103.492188 72.8125 103.492188 74.816406 103.492188 C 74.816406 100.777344 74.816406 98.167969 74.816406 95.523438 C 78.367188 95.152344 81.695312 94.421875 84.742188 92.800781 C 89.6875 90.171875 92.460938 86.035156 92.421875 80.394531 C 92.378906 74.710938 89.519531 70.648438 84.40625 68.183594 " fill-opacity="1" fill-rule="nonzero"/><g clip-path="url(#c265333baf)"><path fill="#ffffff" d="M 68.625 113.648438 C 43.796875 113.648438 23.601562 93.453125 23.601562 68.625 C 23.601562 43.796875 43.796875 23.601562 68.625 23.601562 C 93.453125 23.601562 113.648438 43.796875 113.648438 68.625 C 113.648438 93.453125 93.453125 113.648438 68.625 113.648438 Z M 106.542969 30.707031 C 96.414062 20.578125 82.949219 15 68.625 15 C 54.300781 15 40.835938 20.578125 30.707031 30.707031 C 20.578125 40.835938 15 54.300781 15 68.625 C 15 82.949219 20.578125 96.414062 30.707031 106.542969 C 40.835938 116.671875 54.300781 122.25 68.625 122.25 C 82.949219 122.25 96.414062 116.671875 106.542969 106.542969 C 116.671875 96.414062 122.25 82.949219 122.25 68.625 C 122.25 54.300781 116.671875 40.835938 106.542969 30.707031 " fill-opacity="1" fill-rule="nonzero"/></g><g fill="#ffffff" fill-opacity="1"><g transform="translate(128.194331, 83.497545)"><g><path d="M 2.90625 -21.4375 L 9.046875 -21.4375 C 11.703125 -21.4375 13.71875 -21.035156 15.09375 -20.234375 C 16.476562 -19.441406 17.171875 -18.070312 17.171875 -16.125 C 17.171875 -14.863281 16.820312 -13.816406 16.125 -12.984375 C 15.425781 -12.160156 14.414062 -11.625 13.09375 -11.375 L 13.09375 -11.234375 C 13.988281 -11.066406 14.800781 -10.789062 15.53125 -10.40625 C 16.269531 -10.03125 16.847656 -9.492188 17.265625 -8.796875 C 17.691406 -8.097656 17.90625 -7.195312 17.90625 -6.09375 C 17.90625 -4.15625 17.238281 -2.65625 15.90625 -1.59375 C 14.570312 -0.53125 12.753906 0 10.453125 0 L 2.90625 0 Z M 5.609375 -12.3125 L 9.578125 -12.3125 C 11.398438 -12.3125 12.65625 -12.601562 13.34375 -13.1875 C 14.039062 -13.78125 14.390625 -14.660156 14.390625 -15.828125 C 14.390625 -17.003906 13.972656 -17.847656 13.140625 -18.359375 C 12.304688 -18.867188 10.976562 -19.125 9.15625 -19.125 L 5.609375 -19.125 Z M 5.609375 -10.0625 L 5.609375 -2.28125 L 9.9375 -2.28125 C 11.84375 -2.28125 13.164062 -2.648438 13.90625 -3.390625 C 14.644531 -4.128906 15.015625 -5.101562 15.015625 -6.3125 C 15.015625 -7.425781 14.628906 -8.328125 13.859375 -9.015625 C 13.085938 -9.710938 11.710938 -10.0625 9.734375 -10.0625 Z M 5.609375 -10.0625 "/></g></g></g><g fill="#ffffff" fill-opacity="1"><g transform="translate(147.717206, 83.497545)"><g><path d="M 3.90625 -22.140625 C 4.300781 -22.140625 4.65625 -22.003906 4.96875 -21.734375 C 5.28125 -21.460938 5.4375 -21.035156 5.4375 -20.453125 C 5.4375 -19.867188 5.28125 -19.441406 4.96875 -19.171875 C 4.65625 -18.898438 4.300781 -18.765625 3.90625 -18.765625 C 3.46875 -18.765625 3.097656 -18.898438 2.796875 -19.171875 C 2.492188 -19.441406 2.34375 -19.867188 2.34375 -20.453125 C 2.34375 -21.035156 2.492188 -21.460938 2.796875 -21.734375 C 3.097656 -22.003906 3.46875 -22.140625 3.90625 -22.140625 Z M 5.203125 -16.09375 L 5.203125 0 L 2.546875 0 L 2.546875 -16.09375 Z M 5.203125 -16.09375 "/></g></g></g><g fill="#ffffff" fill-opacity="1"><g transform="translate(155.466286, 83.497545)"><g><path d="M 7.921875 -1.859375 C 8.328125 -1.859375 8.738281 -1.890625 9.15625 -1.953125 C 9.582031 -2.015625 9.925781 -2.09375 10.1875 -2.1875 L 10.1875 -0.1875 C 9.90625 -0.0390625 9.503906 0.0703125 8.984375 0.15625 C 8.460938 0.25 7.960938 0.296875 7.484375 0.296875 C 6.640625 0.296875 5.859375 0.148438 5.140625 -0.140625 C 4.429688 -0.429688 3.859375 -0.9375 3.421875 -1.65625 C 2.984375 -2.375 2.765625 -3.382812 2.765625 -4.6875 L 2.765625 -14.046875 L 0.484375 -14.046875 L 0.484375 -15.3125 L 2.796875 -16.359375 L 3.84375 -19.796875 L 5.40625 -19.796875 L 5.40625 -16.09375 L 10.0625 -16.09375 L 10.0625 -14.046875 L 5.40625 -14.046875 L 5.40625 -4.75 C 5.40625 -3.757812 5.640625 -3.03125 6.109375 -2.5625 C 6.578125 -2.09375 7.179688 -1.859375 7.921875 -1.859375 Z M 7.921875 -1.859375 "/></g></g></g><g fill="#ffffff" fill-opacity="1"><g transform="translate(166.308991, 83.497545)"><g/></g></g><g fill="#ffffff" fill-opacity="1"><g transform="translate(176.370784, 83.497545)"><g><path d="M 12.375 0 L 5.3125 -18.796875 L 5.203125 -18.796875 C 5.253906 -18.179688 5.300781 -17.347656 5.34375 -16.296875 C 5.382812 -15.242188 5.40625 -14.144531 5.40625 -13 L 5.40625 0 L 2.90625 0 L 2.90625 -21.4375 L 6.90625 -21.4375 L 13.515625 -3.875 L 13.640625 -3.875 L 20.359375 -21.4375 L 24.328125 -21.4375 L 24.328125 0 L 21.65625 0 L 21.65625 -13.1875 C 21.65625 -14.226562 21.675781 -15.257812 21.71875 -16.28125 C 21.769531 -17.300781 21.816406 -18.128906 21.859375 -18.765625 L 21.75 -18.765625 L 14.59375 0 Z M 12.375 0 "/></g></g></g><g fill="#ffffff" fill-opacity="1"><g transform="translate(203.612711, 83.497545)"><g><path d="M 16.546875 -8.078125 C 16.546875 -5.410156 15.867188 -3.347656 14.515625 -1.890625 C 13.171875 -0.429688 11.347656 0.296875 9.046875 0.296875 C 7.617188 0.296875 6.347656 -0.0234375 5.234375 -0.671875 C 4.128906 -1.328125 3.253906 -2.28125 2.609375 -3.53125 C 1.972656 -4.78125 1.65625 -6.296875 1.65625 -8.078125 C 1.65625 -10.742188 2.316406 -12.796875 3.640625 -14.234375 C 4.972656 -15.671875 6.800781 -16.390625 9.125 -16.390625 C 10.570312 -16.390625 11.851562 -16.0625 12.96875 -15.40625 C 14.09375 -14.757812 14.96875 -13.820312 15.59375 -12.59375 C 16.226562 -11.363281 16.546875 -9.859375 16.546875 -8.078125 Z M 4.390625 -8.078125 C 4.390625 -6.171875 4.765625 -4.660156 5.515625 -3.546875 C 6.265625 -2.441406 7.457031 -1.890625 9.09375 -1.890625 C 10.71875 -1.890625 11.910156 -2.441406 12.671875 -3.546875 C 13.429688 -4.660156 13.8125 -6.171875 13.8125 -8.078125 C 13.8125 -9.984375 13.429688 -11.472656 12.671875 -12.546875 C 11.910156 -13.628906 10.707031 -14.171875 9.0625 -14.171875 C 7.425781 -14.171875 6.238281 -13.628906 5.5 -12.546875 C 4.757812 -11.472656 4.390625 -9.984375 4.390625 -8.078125 Z M 4.390625 -8.078125 "/></g></g></g><g fill="#ffffff" fill-opacity="1"><g transform="translate(221.784005, 83.497545)"><g><path d="M 7.921875 -1.859375 C 8.328125 -1.859375 8.738281 -1.890625 9.15625 -1.953125 C 9.582031 -2.015625 9.925781 -2.09375 10.1875 -2.1875 L 10.1875 -0.1875 C 9.90625 -0.0390625 9.503906 0.0703125 8.984375 0.15625 C 8.460938 0.25 7.960938 0.296875 7.484375 0.296875 C 6.640625 0.296875 5.859375 0.148438 5.140625 -0.140625 C 4.429688 -0.429688 3.859375 -0.9375 3.421875 -1.65625 C 2.984375 -2.375 2.765625 -3.382812 2.765625 -4.6875 L 2.765625 -14.046875 L 0.484375 -14.046875 L 0.484375 -15.3125 L 2.796875 -16.359375 L 3.84375 -19.796875 L 5.40625 -19.796875 L 5.40625 -16.09375 L 10.0625 -16.09375 L 10.0625 -14.046875 L 5.40625 -14.046875 L 5.40625 -4.75 C 5.40625 -3.757812 5.640625 -3.03125 6.109375 -2.5625 C 6.578125 -2.09375 7.179688 -1.859375 7.921875 -1.859375 Z M 7.921875 -1.859375 "/></g></g></g><g fill="#ffffff" fill-opacity="1"><g transform="translate(232.62671, 83.497545)"><g><path d="M 16.546875 -8.078125 C 16.546875 -5.410156 15.867188 -3.347656 14.515625 -1.890625 C 13.171875 -0.429688 11.347656 0.296875 9.046875 0.296875 C 7.617188 0.296875 6.347656 -0.0234375 5.234375 -0.671875 C 4.128906 -1.328125 3.253906 -2.28125 2.609375 -3.53125 C 1.972656 -4.78125 1.65625 -6.296875 1.65625 -8.078125 C 1.65625 -10.742188 2.316406 -12.796875 3.640625 -14.234375 C 4.972656 -15.671875 6.800781 -16.390625 9.125 -16.390625 C 10.570312 -16.390625 11.851562 -16.0625 12.96875 -15.40625 C 14.09375 -14.757812 14.96875 -13.820312 15.59375 -12.59375 C 16.226562 -11.363281 16.546875 -9.859375 16.546875 -8.078125 Z M 4.390625 -8.078125 C 4.390625 -6.171875 4.765625 -4.660156 5.515625 -3.546875 C 6.265625 -2.441406 7.457031 -1.890625 9.09375 -1.890625 C 10.71875 -1.890625 11.910156 -2.441406 12.671875 -3.546875 C 13.429688 -4.660156 13.8125 -6.171875 13.8125 -8.078125 C 13.8125 -9.984375 13.429688 -11.472656 12.671875 -12.546875 C 11.910156 -13.628906 10.707031 -14.171875 9.0625 -14.171875 C 7.425781 -14.171875 6.238281 -13.628906 5.5 -12.546875 C 4.757812 -11.472656 4.390625 -9.984375 4.390625 -8.078125 Z M 4.390625 -8.078125 "/></g></g></g><g fill="#ffffff" fill-opacity="1"><g transform="translate(250.798004, 83.497545)"><g><path d="M 10.0625 -16.390625 C 10.363281 -16.390625 10.679688 -16.375 11.015625 -16.34375 C 11.359375 -16.320312 11.671875 -16.28125 11.953125 -16.21875 L 11.625 -13.78125 C 11.363281 -13.84375 11.070312 -13.894531 10.75 -13.9375 C 10.425781 -13.976562 10.132812 -14 9.875 -14 C 9.0625 -14 8.289062 -13.769531 7.5625 -13.3125 C 6.84375 -12.863281 6.269531 -12.234375 5.84375 -11.421875 C 5.414062 -10.609375 5.203125 -9.664062 5.203125 -8.59375 L 5.203125 0 L 2.546875 0 L 2.546875 -16.09375 L 4.71875 -16.09375 L 5.015625 -13.15625 L 5.140625 -13.15625 C 5.640625 -14.03125 6.300781 -14.785156 7.125 -15.421875 C 7.957031 -16.066406 8.9375 -16.390625 10.0625 -16.390625 Z M 10.0625 -16.390625 "/></g></g></g><g fill="#ffffff" fill-opacity="1"><g transform="translate(263.20254, 83.497545)"><g><path d="M 13.03125 -4.4375 C 13.03125 -2.882812 12.445312 -1.707031 11.28125 -0.90625 C 10.125 -0.101562 8.566406 0.296875 6.609375 0.296875 C 5.484375 0.296875 4.515625 0.207031 3.703125 0.03125 C 2.898438 -0.144531 2.1875 -0.394531 1.5625 -0.71875 L 1.5625 -3.125 C 2.195312 -2.800781 2.96875 -2.503906 3.875 -2.234375 C 4.789062 -1.960938 5.722656 -1.828125 6.671875 -1.828125 C 8.003906 -1.828125 8.972656 -2.039062 9.578125 -2.46875 C 10.179688 -2.90625 10.484375 -3.484375 10.484375 -4.203125 C 10.484375 -4.609375 10.367188 -4.96875 10.140625 -5.28125 C 9.921875 -5.601562 9.523438 -5.925781 8.953125 -6.25 C 8.390625 -6.570312 7.578125 -6.929688 6.515625 -7.328125 C 5.472656 -7.722656 4.582031 -8.117188 3.84375 -8.515625 C 3.101562 -8.921875 2.53125 -9.40625 2.125 -9.96875 C 1.726562 -10.53125 1.53125 -11.25 1.53125 -12.125 C 1.53125 -13.488281 2.082031 -14.539062 3.1875 -15.28125 C 4.300781 -16.019531 5.757812 -16.390625 7.5625 -16.390625 C 8.550781 -16.390625 9.46875 -16.289062 10.3125 -16.09375 C 11.164062 -15.894531 11.960938 -15.632812 12.703125 -15.3125 L 11.796875 -13.21875 C 11.117188 -13.5 10.410156 -13.738281 9.671875 -13.9375 C 8.929688 -14.132812 8.171875 -14.234375 7.390625 -14.234375 C 6.304688 -14.234375 5.476562 -14.054688 4.90625 -13.703125 C 4.332031 -13.359375 4.046875 -12.882812 4.046875 -12.28125 C 4.046875 -11.820312 4.175781 -11.441406 4.4375 -11.140625 C 4.695312 -10.835938 5.132812 -10.535156 5.75 -10.234375 C 6.363281 -9.941406 7.179688 -9.601562 8.203125 -9.21875 C 9.222656 -8.84375 10.09375 -8.453125 10.8125 -8.046875 C 11.53125 -7.648438 12.078125 -7.164062 12.453125 -6.59375 C 12.835938 -6.019531 13.03125 -5.300781 13.03125 -4.4375 Z M 13.03125 -4.4375 "/></g></g></g></svg>