<svg xmlns="http://www.w3.org/2000/svg" xmlns:xlink="http://www.w3.org/1999/xlink" width="120" zoomAndPan="magnify" viewBox="0 0 75 44.999999" height="80" preserveAspectRatio="xMidYMid meet" version="1.0"><defs><g/><clipPath id="367c271323"><path d="M 1.5 10.023438 L 26.25 10.023438 L 26.25 34.773438 L 1.5 34.773438 Z M 1.5 10.023438 " clip-rule="nonzero"/></clipPath></defs><path fill="#ffffff" d="M 16.722656 25.628906 C 16.492188 26.300781 15.945312 26.636719 15.28125 26.707031 C 14.480469 26.789062 13.671875 26.785156 12.871094 26.824219 C 12.699219 26.832031 12.667969 26.738281 12.667969 26.59375 C 12.675781 26.089844 12.671875 25.589844 12.671875 25.085938 C 12.675781 25.085938 12.683594 25.085938 12.6875 25.085938 C 12.6875 24.546875 12.691406 24.007812 12.6875 23.46875 C 12.683594 23.292969 12.769531 23.226562 12.929688 23.234375 C 13.738281 23.28125 14.554688 23.273438 15.351562 23.390625 C 16.523438 23.566406 17.101562 24.546875 16.722656 25.628906 Z M 12.671875 18.089844 C 12.695312 18.070312 12.707031 18.050781 12.722656 18.050781 C 13.5 18.023438 14.277344 17.980469 15.039062 18.183594 C 15.753906 18.378906 16.121094 18.839844 16.121094 19.523438 C 16.125 20.285156 15.773438 20.753906 15.03125 20.945312 C 14.261719 21.148438 13.472656 21.074219 12.671875 21.082031 C 12.671875 20.0625 12.671875 19.070312 12.671875 18.089844 Z M 17.515625 22.296875 C 17.339844 22.210938 17.160156 22.132812 16.949219 22.039062 C 17.03125 21.988281 17.078125 21.960938 17.128906 21.933594 C 18.796875 21 19.152344 18.867188 17.886719 17.4375 C 17.28125 16.757812 16.527344 16.386719 15.628906 16.320312 C 15.363281 16.300781 15.273438 16.214844 15.28125 15.941406 C 15.304688 15.414062 15.289062 14.886719 15.289062 14.347656 C 14.824219 14.347656 14.398438 14.347656 13.933594 14.347656 C 13.933594 14.96875 13.933594 15.570312 13.933594 16.195312 C 13.683594 16.195312 13.46875 16.195312 13.253906 16.195312 C 12.675781 16.1875 12.75 16.261719 12.746094 15.671875 C 12.742188 15.230469 12.742188 14.789062 12.742188 14.347656 C 12.277344 14.347656 11.855469 14.347656 11.410156 14.347656 C 11.410156 14.859375 11.394531 15.351562 11.414062 15.84375 C 11.425781 16.109375 11.355469 16.207031 11.070312 16.199219 C 10.277344 16.179688 9.480469 16.191406 8.683594 16.195312 C 8.582031 16.195312 8.484375 16.203125 8.382812 16.207031 C 8.382812 16.828125 8.382812 17.417969 8.382812 18.03125 C 8.8125 18.03125 9.222656 18.027344 9.628906 18.03125 C 10.03125 18.035156 10.132812 18.136719 10.132812 18.535156 C 10.132812 19.835938 10.136719 21.132812 10.136719 22.429688 C 10.136719 23.699219 10.132812 24.96875 10.132812 26.238281 C 10.132812 26.742188 10.058594 26.820312 9.558594 26.820312 C 9.167969 26.820312 8.773438 26.820312 8.382812 26.820312 C 8.382812 27.464844 8.382812 28.058594 8.382812 28.667969 C 9.28125 28.667969 10.152344 28.667969 11.023438 28.667969 C 11.40625 28.667969 11.40625 28.667969 11.40625 29.054688 C 11.40625 29.515625 11.40625 29.980469 11.40625 30.449219 C 11.871094 30.449219 12.292969 30.449219 12.746094 30.449219 C 12.746094 30.328125 12.746094 30.226562 12.746094 30.125 C 12.746094 29.726562 12.753906 29.328125 12.742188 28.929688 C 12.734375 28.734375 12.800781 28.652344 13.003906 28.667969 C 13.210938 28.679688 13.421875 28.683594 13.628906 28.664062 C 13.871094 28.640625 13.964844 28.714844 13.953125 28.972656 C 13.929688 29.460938 13.945312 29.953125 13.945312 30.445312 C 14.414062 30.445312 14.839844 30.445312 15.304688 30.445312 C 15.304688 29.816406 15.304688 29.214844 15.304688 28.605469 C 16.121094 28.519531 16.890625 28.351562 17.59375 27.976562 C 18.734375 27.371094 19.375 26.414062 19.367188 25.113281 C 19.355469 23.800781 18.695312 22.867188 17.515625 22.296875 " fill-opacity="1" fill-rule="nonzero"/><g clip-path="url(#367c271323)"><path fill="#ffffff" d="M 13.875 32.789062 C 8.144531 32.789062 3.484375 28.128906 3.484375 22.398438 C 3.484375 16.667969 8.144531 12.007812 13.875 12.007812 C 19.605469 12.007812 24.265625 16.667969 24.265625 22.398438 C 24.265625 28.128906 19.605469 32.789062 13.875 32.789062 Z M 22.625 13.648438 C 20.289062 11.3125 17.179688 10.023438 13.875 10.023438 C 10.570312 10.023438 7.460938 11.3125 5.125 13.648438 C 2.789062 15.984375 1.5 19.09375 1.5 22.398438 C 1.5 25.703125 2.789062 28.8125 5.125 31.148438 C 7.460938 33.484375 10.570312 34.773438 13.875 34.773438 C 17.179688 34.773438 20.289062 33.484375 22.625 31.148438 C 24.960938 28.8125 26.25 25.703125 26.25 22.398438 C 26.25 19.09375 24.960938 15.984375 22.625 13.648438 " fill-opacity="1" fill-rule="nonzero"/></g><g fill="#ffffff" fill-opacity="1"><g transform="translate(27.672, 25.29577)"><g><path d="M 0.921875 -6.828125 L 2.875 -6.828125 C 3.726562 -6.828125 4.375 -6.695312 4.8125 -6.4375 C 5.25 -6.1875 5.46875 -5.753906 5.46875 -5.140625 C 5.46875 -4.734375 5.351562 -4.394531 5.125 -4.125 C 4.90625 -3.863281 4.585938 -3.695312 4.171875 -3.625 L 4.171875 -3.578125 C 4.453125 -3.523438 4.707031 -3.4375 4.9375 -3.3125 C 5.175781 -3.195312 5.363281 -3.023438 5.5 -2.796875 C 5.632812 -2.578125 5.703125 -2.289062 5.703125 -1.9375 C 5.703125 -1.320312 5.488281 -0.84375 5.0625 -0.5 C 4.632812 -0.164062 4.054688 0 3.328125 0 L 0.921875 0 Z M 1.78125 -3.921875 L 3.046875 -3.921875 C 3.628906 -3.921875 4.03125 -4.015625 4.25 -4.203125 C 4.46875 -4.390625 4.578125 -4.671875 4.578125 -5.046875 C 4.578125 -5.421875 4.441406 -5.6875 4.171875 -5.84375 C 3.910156 -6.007812 3.492188 -6.09375 2.921875 -6.09375 L 1.78125 -6.09375 Z M 1.78125 -3.203125 L 1.78125 -0.734375 L 3.171875 -0.734375 C 3.773438 -0.734375 4.191406 -0.847656 4.421875 -1.078125 C 4.660156 -1.316406 4.78125 -1.628906 4.78125 -2.015625 C 4.78125 -2.367188 4.65625 -2.65625 4.40625 -2.875 C 4.164062 -3.09375 3.726562 -3.203125 3.09375 -3.203125 Z M 1.78125 -3.203125 "/></g></g></g><g fill="#ffffff" fill-opacity="1"><g transform="translate(33.887583, 25.29577)"><g><path d="M 1.25 -7.046875 C 1.375 -7.046875 1.484375 -7.003906 1.578125 -6.921875 C 1.679688 -6.835938 1.734375 -6.703125 1.734375 -6.515625 C 1.734375 -6.328125 1.679688 -6.1875 1.578125 -6.09375 C 1.484375 -6.007812 1.375 -5.96875 1.25 -5.96875 C 1.101562 -5.96875 0.984375 -6.007812 0.890625 -6.09375 C 0.796875 -6.1875 0.75 -6.328125 0.75 -6.515625 C 0.75 -6.703125 0.796875 -6.835938 0.890625 -6.921875 C 0.984375 -7.003906 1.101562 -7.046875 1.25 -7.046875 Z M 1.65625 -5.125 L 1.65625 0 L 0.8125 0 L 0.8125 -5.125 Z M 1.65625 -5.125 "/></g></g></g><g fill="#ffffff" fill-opacity="1"><g transform="translate(36.354689, 25.29577)"><g><path d="M 2.53125 -0.59375 C 2.65625 -0.59375 2.785156 -0.601562 2.921875 -0.625 C 3.054688 -0.644531 3.160156 -0.671875 3.234375 -0.703125 L 3.234375 -0.0625 C 3.148438 -0.0078125 3.023438 0.0234375 2.859375 0.046875 C 2.691406 0.078125 2.53125 0.09375 2.375 0.09375 C 2.113281 0.09375 1.867188 0.046875 1.640625 -0.046875 C 1.410156 -0.140625 1.222656 -0.300781 1.078125 -0.53125 C 0.941406 -0.757812 0.875 -1.078125 0.875 -1.484375 L 0.875 -4.46875 L 0.15625 -4.46875 L 0.15625 -4.875 L 0.890625 -5.21875 L 1.21875 -6.296875 L 1.71875 -6.296875 L 1.71875 -5.125 L 3.203125 -5.125 L 3.203125 -4.46875 L 1.71875 -4.46875 L 1.71875 -1.515625 C 1.71875 -1.203125 1.789062 -0.96875 1.9375 -0.8125 C 2.09375 -0.664062 2.289062 -0.59375 2.53125 -0.59375 Z M 2.53125 -0.59375 "/></g></g></g><g fill="#ffffff" fill-opacity="1"><g transform="translate(39.80673, 25.29577)"><g/></g></g><g fill="#ffffff" fill-opacity="1"><g transform="translate(43.010149, 25.29577)"><g><path d="M 3.9375 0 L 1.6875 -5.984375 L 1.65625 -5.984375 C 1.675781 -5.785156 1.691406 -5.519531 1.703125 -5.1875 C 1.710938 -4.851562 1.71875 -4.503906 1.71875 -4.140625 L 1.71875 0 L 0.921875 0 L 0.921875 -6.828125 L 2.203125 -6.828125 L 4.296875 -1.234375 L 4.34375 -1.234375 L 6.484375 -6.828125 L 7.75 -6.828125 L 7.75 0 L 6.890625 0 L 6.890625 -4.203125 C 6.890625 -4.523438 6.894531 -4.847656 6.90625 -5.171875 C 6.925781 -5.503906 6.945312 -5.769531 6.96875 -5.96875 L 6.921875 -5.96875 L 4.640625 0 Z M 3.9375 0 "/></g></g></g><g fill="#ffffff" fill-opacity="1"><g transform="translate(51.683271, 25.29577)"><g><path d="M 5.265625 -2.578125 C 5.265625 -1.722656 5.050781 -1.0625 4.625 -0.59375 C 4.195312 -0.132812 3.613281 0.09375 2.875 0.09375 C 2.425781 0.09375 2.023438 -0.0078125 1.671875 -0.21875 C 1.316406 -0.425781 1.035156 -0.726562 0.828125 -1.125 C 0.628906 -1.519531 0.53125 -2.003906 0.53125 -2.578125 C 0.53125 -3.421875 0.738281 -4.070312 1.15625 -4.53125 C 1.582031 -4.988281 2.164062 -5.21875 2.90625 -5.21875 C 3.363281 -5.21875 3.769531 -5.113281 4.125 -4.90625 C 4.488281 -4.695312 4.769531 -4.394531 4.96875 -4 C 5.164062 -3.613281 5.265625 -3.140625 5.265625 -2.578125 Z M 1.390625 -2.578125 C 1.390625 -1.960938 1.507812 -1.476562 1.75 -1.125 C 1.988281 -0.78125 2.367188 -0.609375 2.890625 -0.609375 C 3.410156 -0.609375 3.789062 -0.78125 4.03125 -1.125 C 4.28125 -1.476562 4.40625 -1.960938 4.40625 -2.578125 C 4.40625 -3.179688 4.28125 -3.65625 4.03125 -4 C 3.789062 -4.34375 3.410156 -4.515625 2.890625 -4.515625 C 2.367188 -4.515625 1.988281 -4.34375 1.75 -4 C 1.507812 -3.65625 1.390625 -3.179688 1.390625 -2.578125 Z M 1.390625 -2.578125 "/></g></g></g><g fill="#ffffff" fill-opacity="1"><g transform="translate(57.468545, 25.29577)"><g><path d="M 2.53125 -0.59375 C 2.65625 -0.59375 2.785156 -0.601562 2.921875 -0.625 C 3.054688 -0.644531 3.160156 -0.671875 3.234375 -0.703125 L 3.234375 -0.0625 C 3.148438 -0.0078125 3.023438 0.0234375 2.859375 0.046875 C 2.691406 0.078125 2.53125 0.09375 2.375 0.09375 C 2.113281 0.09375 1.867188 0.046875 1.640625 -0.046875 C 1.410156 -0.140625 1.222656 -0.300781 1.078125 -0.53125 C 0.941406 -0.757812 0.875 -1.078125 0.875 -1.484375 L 0.875 -4.46875 L 0.15625 -4.46875 L 0.15625 -4.875 L 0.890625 -5.21875 L 1.21875 -6.296875 L 1.71875 -6.296875 L 1.71875 -5.125 L 3.203125 -5.125 L 3.203125 -4.46875 L 1.71875 -4.46875 L 1.71875 -1.515625 C 1.71875 -1.203125 1.789062 -0.96875 1.9375 -0.8125 C 2.09375 -0.664062 2.289062 -0.59375 2.53125 -0.59375 Z M 2.53125 -0.59375 "/></g></g></g><g fill="#ffffff" fill-opacity="1"><g transform="translate(60.920586, 25.29577)"><g><path d="M 5.265625 -2.578125 C 5.265625 -1.722656 5.050781 -1.0625 4.625 -0.59375 C 4.195312 -0.132812 3.613281 0.09375 2.875 0.09375 C 2.425781 0.09375 2.023438 -0.0078125 1.671875 -0.21875 C 1.316406 -0.425781 1.035156 -0.726562 0.828125 -1.125 C 0.628906 -1.519531 0.53125 -2.003906 0.53125 -2.578125 C 0.53125 -3.421875 0.738281 -4.070312 1.15625 -4.53125 C 1.582031 -4.988281 2.164062 -5.21875 2.90625 -5.21875 C 3.363281 -5.21875 3.769531 -5.113281 4.125 -4.90625 C 4.488281 -4.695312 4.769531 -4.394531 4.96875 -4 C 5.164062 -3.613281 5.265625 -3.140625 5.265625 -2.578125 Z M 1.390625 -2.578125 C 1.390625 -1.960938 1.507812 -1.476562 1.75 -1.125 C 1.988281 -0.78125 2.367188 -0.609375 2.890625 -0.609375 C 3.410156 -0.609375 3.789062 -0.78125 4.03125 -1.125 C 4.28125 -1.476562 4.40625 -1.960938 4.40625 -2.578125 C 4.40625 -3.179688 4.28125 -3.65625 4.03125 -4 C 3.789062 -4.34375 3.410156 -4.515625 2.890625 -4.515625 C 2.367188 -4.515625 1.988281 -4.34375 1.75 -4 C 1.507812 -3.65625 1.390625 -3.179688 1.390625 -2.578125 Z M 1.390625 -2.578125 "/></g></g></g><g fill="#ffffff" fill-opacity="1"><g transform="translate(66.705861, 25.29577)"><g><path d="M 3.203125 -5.21875 C 3.296875 -5.21875 3.394531 -5.210938 3.5 -5.203125 C 3.613281 -5.191406 3.71875 -5.175781 3.8125 -5.15625 L 3.703125 -4.390625 C 3.617188 -4.410156 3.523438 -4.425781 3.421875 -4.4375 C 3.316406 -4.445312 3.222656 -4.453125 3.140625 -4.453125 C 2.878906 -4.453125 2.632812 -4.378906 2.40625 -4.234375 C 2.175781 -4.097656 1.992188 -3.898438 1.859375 -3.640625 C 1.722656 -3.378906 1.65625 -3.078125 1.65625 -2.734375 L 1.65625 0 L 0.8125 0 L 0.8125 -5.125 L 1.5 -5.125 L 1.59375 -4.1875 L 1.640625 -4.1875 C 1.796875 -4.46875 2.003906 -4.707031 2.265625 -4.90625 C 2.535156 -5.113281 2.847656 -5.21875 3.203125 -5.21875 Z M 3.203125 -5.21875 "/></g></g></g><g fill="#ffffff" fill-opacity="1"><g transform="translate(70.655148, 25.29577)"><g><path d="M 4.15625 -1.421875 C 4.15625 -0.921875 3.96875 -0.539062 3.59375 -0.28125 C 3.226562 -0.03125 2.734375 0.09375 2.109375 0.09375 C 1.742188 0.09375 1.429688 0.0625 1.171875 0 C 0.921875 -0.0507812 0.695312 -0.128906 0.5 -0.234375 L 0.5 -1 C 0.695312 -0.894531 0.941406 -0.796875 1.234375 -0.703125 C 1.523438 -0.617188 1.820312 -0.578125 2.125 -0.578125 C 2.550781 -0.578125 2.859375 -0.644531 3.046875 -0.78125 C 3.242188 -0.925781 3.34375 -1.113281 3.34375 -1.34375 C 3.34375 -1.46875 3.304688 -1.582031 3.234375 -1.6875 C 3.160156 -1.789062 3.03125 -1.890625 2.84375 -1.984375 C 2.664062 -2.085938 2.410156 -2.203125 2.078125 -2.328125 C 1.742188 -2.460938 1.457031 -2.59375 1.21875 -2.71875 C 0.988281 -2.84375 0.804688 -2.992188 0.671875 -3.171875 C 0.546875 -3.347656 0.484375 -3.578125 0.484375 -3.859375 C 0.484375 -4.296875 0.660156 -4.628906 1.015625 -4.859375 C 1.367188 -5.097656 1.832031 -5.21875 2.40625 -5.21875 C 2.71875 -5.21875 3.007812 -5.1875 3.28125 -5.125 C 3.550781 -5.0625 3.804688 -4.976562 4.046875 -4.875 L 3.765625 -4.203125 C 3.546875 -4.296875 3.316406 -4.375 3.078125 -4.4375 C 2.835938 -4.5 2.597656 -4.53125 2.359375 -4.53125 C 2.015625 -4.53125 1.75 -4.472656 1.5625 -4.359375 C 1.382812 -4.253906 1.296875 -4.101562 1.296875 -3.90625 C 1.296875 -3.757812 1.335938 -3.640625 1.421875 -3.546875 C 1.503906 -3.453125 1.640625 -3.359375 1.828125 -3.265625 C 2.023438 -3.171875 2.285156 -3.0625 2.609375 -2.9375 C 2.929688 -2.8125 3.207031 -2.6875 3.4375 -2.5625 C 3.664062 -2.4375 3.84375 -2.28125 3.96875 -2.09375 C 4.09375 -1.914062 4.15625 -1.691406 4.15625 -1.421875 Z M 4.15625 -1.421875 "/></g></g></g></svg>