<svg xmlns="http://www.w3.org/2000/svg" xmlns:xlink="http://www.w3.org/1999/xlink" width="400" zoomAndPan="magnify" viewBox="0 0 300 149.999998" height="200" preserveAspectRatio="xMidYMid meet" version="1.0"><defs><g/><clipPath id="74f0b719b5"><path d="M 83.058594 46.871094 L 119.808594 46.871094 L 119.808594 83.621094 L 83.058594 83.621094 Z M 83.058594 46.871094 " clip-rule="nonzero"/></clipPath></defs><path fill="#ffffff" d="M 105.664062 70.039062 C 105.316406 71.039062 104.507812 71.535156 103.519531 71.640625 C 102.332031 71.765625 101.132812 71.761719 99.941406 71.816406 C 99.683594 71.828125 99.640625 71.691406 99.644531 71.472656 C 99.648438 70.730469 99.644531 69.984375 99.644531 69.238281 C 99.652344 69.238281 99.664062 69.238281 99.671875 69.238281 C 99.671875 68.4375 99.675781 67.636719 99.667969 66.835938 C 99.664062 66.574219 99.792969 66.476562 100.027344 66.488281 C 101.226562 66.554688 102.441406 66.542969 103.625 66.71875 C 105.363281 66.976562 106.222656 68.433594 105.664062 70.039062 Z M 99.644531 58.84375 C 99.679688 58.820312 99.699219 58.789062 99.722656 58.789062 C 100.875 58.75 102.03125 58.683594 103.160156 58.988281 C 104.222656 59.273438 104.765625 59.960938 104.769531 60.976562 C 104.773438 62.105469 104.25 62.800781 103.148438 63.089844 C 102.003906 63.386719 100.835938 63.28125 99.644531 63.289062 C 99.644531 61.777344 99.644531 60.304688 99.644531 58.84375 Z M 106.839844 65.09375 C 106.578125 64.96875 106.308594 64.851562 105.996094 64.710938 C 106.121094 64.636719 106.191406 64.59375 106.261719 64.554688 C 108.738281 63.167969 109.269531 60 107.386719 57.878906 C 106.492188 56.867188 105.371094 56.316406 104.035156 56.21875 C 103.644531 56.191406 103.507812 56.058594 103.523438 55.660156 C 103.554688 54.875 103.53125 54.089844 103.53125 53.289062 C 102.84375 53.289062 102.207031 53.289062 101.519531 53.289062 C 101.519531 54.214844 101.519531 55.105469 101.519531 56.03125 C 101.152344 56.03125 100.828125 56.035156 100.507812 56.03125 C 99.65625 56.023438 99.761719 56.132812 99.753906 55.253906 C 99.75 54.601562 99.753906 53.945312 99.753906 53.289062 C 99.058594 53.289062 98.433594 53.289062 97.769531 53.289062 C 97.769531 54.050781 97.75 54.785156 97.777344 55.511719 C 97.792969 55.910156 97.691406 56.050781 97.269531 56.039062 C 96.089844 56.011719 94.90625 56.03125 93.722656 56.03125 C 93.574219 56.03125 93.425781 56.046875 93.277344 56.050781 C 93.277344 56.972656 93.277344 57.851562 93.277344 58.757812 C 93.917969 58.757812 94.523438 58.753906 95.125 58.761719 C 95.726562 58.765625 95.875 58.914062 95.875 59.511719 C 95.878906 61.4375 95.882812 63.363281 95.882812 65.292969 C 95.882812 67.175781 95.875 69.0625 95.875 70.949219 C 95.875 71.691406 95.765625 71.808594 95.023438 71.8125 C 94.441406 71.8125 93.855469 71.8125 93.28125 71.8125 C 93.28125 72.769531 93.28125 73.648438 93.28125 74.554688 C 94.609375 74.554688 95.90625 74.554688 97.199219 74.554688 C 97.765625 74.554688 97.765625 74.554688 97.765625 75.132812 C 97.769531 75.816406 97.765625 76.5 97.765625 77.199219 C 98.457031 77.199219 99.082031 77.199219 99.757812 77.199219 C 99.757812 77.019531 99.757812 76.867188 99.757812 76.71875 C 99.753906 76.125 99.765625 75.535156 99.75 74.945312 C 99.742188 74.652344 99.839844 74.535156 100.136719 74.550781 C 100.445312 74.570312 100.757812 74.578125 101.066406 74.546875 C 101.429688 74.511719 101.5625 74.621094 101.546875 75.007812 C 101.515625 75.734375 101.539062 76.460938 101.539062 77.191406 C 102.230469 77.191406 102.867188 77.191406 103.554688 77.191406 C 103.554688 76.261719 103.554688 75.367188 103.554688 74.460938 C 104.769531 74.335938 105.910156 74.085938 106.953125 73.527344 C 108.652344 72.628906 109.601562 71.210938 109.585938 69.277344 C 109.574219 67.328125 108.59375 65.9375 106.839844 65.09375 " fill-opacity="1" fill-rule="nonzero"/><g clip-path="url(#74f0b719b5)"><path fill="#ffffff" d="M 101.433594 80.671875 C 92.925781 80.671875 86.003906 73.75 86.003906 65.246094 C 86.003906 56.738281 92.925781 49.816406 101.433594 49.816406 C 109.941406 49.816406 116.859375 56.738281 116.859375 65.246094 C 116.859375 73.75 109.941406 80.671875 101.433594 80.671875 Z M 114.425781 52.25 C 110.957031 48.78125 106.339844 46.871094 101.433594 46.871094 C 96.523438 46.871094 91.910156 48.78125 88.441406 52.25 C 84.96875 55.722656 83.058594 60.335938 83.058594 65.246094 C 83.058594 70.152344 84.96875 74.765625 88.441406 78.238281 C 91.910156 81.707031 96.523438 83.621094 101.433594 83.621094 C 106.339844 83.621094 110.957031 81.707031 114.425781 78.238281 C 117.894531 74.765625 119.808594 70.152344 119.808594 65.246094 C 119.808594 60.335938 117.894531 55.722656 114.425781 52.25 " fill-opacity="1" fill-rule="nonzero"/></g><g fill="#ffffff" fill-opacity="1"><g transform="translate(121.827425, 69.77)"><g><path d="M 1.46875 -10.84375 L 4.578125 -10.84375 C 5.921875 -10.84375 6.941406 -10.640625 7.640625 -10.234375 C 8.335938 -9.828125 8.6875 -9.132812 8.6875 -8.15625 C 8.6875 -7.519531 8.507812 -6.988281 8.15625 -6.5625 C 7.800781 -6.144531 7.289062 -5.875 6.625 -5.75 L 6.625 -5.6875 C 7.082031 -5.601562 7.492188 -5.460938 7.859375 -5.265625 C 8.222656 -5.078125 8.507812 -4.804688 8.71875 -4.453125 C 8.9375 -4.097656 9.046875 -3.640625 9.046875 -3.078125 C 9.046875 -2.097656 8.707031 -1.335938 8.03125 -0.796875 C 7.363281 -0.265625 6.445312 0 5.28125 0 L 1.46875 0 Z M 2.84375 -6.234375 L 4.84375 -6.234375 C 5.769531 -6.234375 6.40625 -6.378906 6.75 -6.671875 C 7.101562 -6.972656 7.28125 -7.414062 7.28125 -8 C 7.28125 -8.601562 7.066406 -9.03125 6.640625 -9.28125 C 6.222656 -9.539062 5.550781 -9.671875 4.625 -9.671875 L 2.84375 -9.671875 Z M 2.84375 -5.09375 L 2.84375 -1.15625 L 5.03125 -1.15625 C 5.988281 -1.15625 6.65625 -1.34375 7.03125 -1.71875 C 7.40625 -2.09375 7.59375 -2.582031 7.59375 -3.1875 C 7.59375 -3.757812 7.394531 -4.21875 7 -4.5625 C 6.613281 -4.914062 5.921875 -5.09375 4.921875 -5.09375 Z M 2.84375 -5.09375 "/></g></g></g><g fill="#ffffff" fill-opacity="1"><g transform="translate(131.699338, 69.77)"><g><path d="M 1.96875 -11.1875 C 2.175781 -11.1875 2.359375 -11.117188 2.515625 -10.984375 C 2.671875 -10.847656 2.75 -10.632812 2.75 -10.34375 C 2.75 -10.050781 2.671875 -9.835938 2.515625 -9.703125 C 2.359375 -9.566406 2.175781 -9.5 1.96875 -9.5 C 1.75 -9.5 1.5625 -9.566406 1.40625 -9.703125 C 1.257812 -9.835938 1.1875 -10.050781 1.1875 -10.34375 C 1.1875 -10.632812 1.257812 -10.847656 1.40625 -10.984375 C 1.5625 -11.117188 1.75 -11.1875 1.96875 -11.1875 Z M 2.625 -8.140625 L 2.625 0 L 1.296875 0 L 1.296875 -8.140625 Z M 2.625 -8.140625 "/></g></g></g><g fill="#ffffff" fill-opacity="1"><g transform="translate(135.617727, 69.77)"><g><path d="M 4.015625 -0.9375 C 4.210938 -0.9375 4.414062 -0.953125 4.625 -0.984375 C 4.84375 -1.015625 5.019531 -1.054688 5.15625 -1.109375 L 5.15625 -0.09375 C 5.007812 -0.0195312 4.800781 0.0351562 4.53125 0.078125 C 4.269531 0.128906 4.019531 0.15625 3.78125 0.15625 C 3.351562 0.15625 2.957031 0.0820312 2.59375 -0.0625 C 2.238281 -0.207031 1.945312 -0.460938 1.71875 -0.828125 C 1.5 -1.191406 1.390625 -1.707031 1.390625 -2.375 L 1.390625 -7.109375 L 0.25 -7.109375 L 0.25 -7.75 L 1.40625 -8.28125 L 1.9375 -10.015625 L 2.734375 -10.015625 L 2.734375 -8.140625 L 5.09375 -8.140625 L 5.09375 -7.109375 L 2.734375 -7.109375 L 2.734375 -2.40625 C 2.734375 -1.90625 2.851562 -1.535156 3.09375 -1.296875 C 3.332031 -1.054688 3.640625 -0.9375 4.015625 -0.9375 Z M 4.015625 -0.9375 "/></g></g></g><g fill="#ffffff" fill-opacity="1"><g transform="translate(141.100431, 69.77)"><g/></g></g><g fill="#ffffff" fill-opacity="1"><g transform="translate(146.188267, 69.77)"><g><path d="M 6.25 0 L 2.6875 -9.5 L 2.625 -9.5 C 2.65625 -9.1875 2.679688 -8.765625 2.703125 -8.234375 C 2.722656 -7.703125 2.734375 -7.148438 2.734375 -6.578125 L 2.734375 0 L 1.46875 0 L 1.46875 -10.84375 L 3.5 -10.84375 L 6.828125 -1.953125 L 6.890625 -1.953125 L 10.296875 -10.84375 L 12.296875 -10.84375 L 12.296875 0 L 10.953125 0 L 10.953125 -6.671875 C 10.953125 -7.191406 10.960938 -7.707031 10.984375 -8.21875 C 11.015625 -8.738281 11.039062 -9.164062 11.0625 -9.5 L 11 -9.5 L 7.375 0 Z M 6.25 0 "/></g></g></g><g fill="#ffffff" fill-opacity="1"><g transform="translate(159.963382, 69.77)"><g><path d="M 8.375 -4.078125 C 8.375 -2.734375 8.03125 -1.691406 7.34375 -0.953125 C 6.65625 -0.210938 5.734375 0.15625 4.578125 0.15625 C 3.859375 0.15625 3.21875 -0.00390625 2.65625 -0.328125 C 2.09375 -0.660156 1.644531 -1.144531 1.3125 -1.78125 C 0.988281 -2.414062 0.828125 -3.179688 0.828125 -4.078125 C 0.828125 -5.429688 1.164062 -6.472656 1.84375 -7.203125 C 2.519531 -7.929688 3.441406 -8.296875 4.609375 -8.296875 C 5.335938 -8.296875 5.984375 -8.128906 6.546875 -7.796875 C 7.117188 -7.472656 7.566406 -7 7.890625 -6.375 C 8.210938 -5.75 8.375 -4.984375 8.375 -4.078125 Z M 2.21875 -4.078125 C 2.21875 -3.117188 2.40625 -2.359375 2.78125 -1.796875 C 3.164062 -1.234375 3.773438 -0.953125 4.609375 -0.953125 C 5.421875 -0.953125 6.019531 -1.234375 6.40625 -1.796875 C 6.789062 -2.359375 6.984375 -3.117188 6.984375 -4.078125 C 6.984375 -5.046875 6.789062 -5.800781 6.40625 -6.34375 C 6.019531 -6.894531 5.414062 -7.171875 4.59375 -7.171875 C 3.757812 -7.171875 3.15625 -6.894531 2.78125 -6.34375 C 2.40625 -5.800781 2.21875 -5.046875 2.21875 -4.078125 Z M 2.21875 -4.078125 "/></g></g></g><g fill="#ffffff" fill-opacity="1"><g transform="translate(169.151855, 69.77)"><g><path d="M 4.015625 -0.9375 C 4.210938 -0.9375 4.414062 -0.953125 4.625 -0.984375 C 4.84375 -1.015625 5.019531 -1.054688 5.15625 -1.109375 L 5.15625 -0.09375 C 5.007812 -0.0195312 4.800781 0.0351562 4.53125 0.078125 C 4.269531 0.128906 4.019531 0.15625 3.78125 0.15625 C 3.351562 0.15625 2.957031 0.0820312 2.59375 -0.0625 C 2.238281 -0.207031 1.945312 -0.460938 1.71875 -0.828125 C 1.5 -1.191406 1.390625 -1.707031 1.390625 -2.375 L 1.390625 -7.109375 L 0.25 -7.109375 L 0.25 -7.75 L 1.40625 -8.28125 L 1.9375 -10.015625 L 2.734375 -10.015625 L 2.734375 -8.140625 L 5.09375 -8.140625 L 5.09375 -7.109375 L 2.734375 -7.109375 L 2.734375 -2.40625 C 2.734375 -1.90625 2.851562 -1.535156 3.09375 -1.296875 C 3.332031 -1.054688 3.640625 -0.9375 4.015625 -0.9375 Z M 4.015625 -0.9375 "/></g></g></g><g fill="#ffffff" fill-opacity="1"><g transform="translate(174.634558, 69.77)"><g><path d="M 8.375 -4.078125 C 8.375 -2.734375 8.03125 -1.691406 7.34375 -0.953125 C 6.65625 -0.210938 5.734375 0.15625 4.578125 0.15625 C 3.859375 0.15625 3.21875 -0.00390625 2.65625 -0.328125 C 2.09375 -0.660156 1.644531 -1.144531 1.3125 -1.78125 C 0.988281 -2.414062 0.828125 -3.179688 0.828125 -4.078125 C 0.828125 -5.429688 1.164062 -6.472656 1.84375 -7.203125 C 2.519531 -7.929688 3.441406 -8.296875 4.609375 -8.296875 C 5.335938 -8.296875 5.984375 -8.128906 6.546875 -7.796875 C 7.117188 -7.472656 7.566406 -7 7.890625 -6.375 C 8.210938 -5.75 8.375 -4.984375 8.375 -4.078125 Z M 2.21875 -4.078125 C 2.21875 -3.117188 2.40625 -2.359375 2.78125 -1.796875 C 3.164062 -1.234375 3.773438 -0.953125 4.609375 -0.953125 C 5.421875 -0.953125 6.019531 -1.234375 6.40625 -1.796875 C 6.789062 -2.359375 6.984375 -3.117188 6.984375 -4.078125 C 6.984375 -5.046875 6.789062 -5.800781 6.40625 -6.34375 C 6.019531 -6.894531 5.414062 -7.171875 4.59375 -7.171875 C 3.757812 -7.171875 3.15625 -6.894531 2.78125 -6.34375 C 2.40625 -5.800781 2.21875 -5.046875 2.21875 -4.078125 Z M 2.21875 -4.078125 "/></g></g></g><g fill="#ffffff" fill-opacity="1"><g transform="translate(183.823031, 69.77)"><g><path d="M 5.09375 -8.296875 C 5.238281 -8.296875 5.394531 -8.285156 5.5625 -8.265625 C 5.738281 -8.253906 5.898438 -8.234375 6.046875 -8.203125 L 5.875 -6.96875 C 5.75 -7 5.601562 -7.023438 5.4375 -7.046875 C 5.269531 -7.066406 5.125 -7.078125 5 -7.078125 C 4.582031 -7.078125 4.191406 -6.960938 3.828125 -6.734375 C 3.460938 -6.503906 3.171875 -6.179688 2.953125 -5.765625 C 2.734375 -5.359375 2.625 -4.882812 2.625 -4.34375 L 2.625 0 L 1.296875 0 L 1.296875 -8.140625 L 2.390625 -8.140625 L 2.53125 -6.65625 L 2.59375 -6.65625 C 2.851562 -7.101562 3.191406 -7.488281 3.609375 -7.8125 C 4.023438 -8.132812 4.519531 -8.296875 5.09375 -8.296875 Z M 5.09375 -8.296875 "/></g></g></g><g fill="#ffffff" fill-opacity="1"><g transform="translate(190.095491, 69.77)"><g><path d="M 6.59375 -2.25 C 6.59375 -1.457031 6.296875 -0.859375 5.703125 -0.453125 C 5.117188 -0.046875 4.332031 0.15625 3.34375 0.15625 C 2.769531 0.15625 2.28125 0.109375 1.875 0.015625 C 1.46875 -0.078125 1.109375 -0.203125 0.796875 -0.359375 L 0.796875 -1.578125 C 1.117188 -1.421875 1.507812 -1.269531 1.96875 -1.125 C 2.425781 -0.988281 2.894531 -0.921875 3.375 -0.921875 C 4.050781 -0.921875 4.539062 -1.03125 4.84375 -1.25 C 5.144531 -1.46875 5.296875 -1.757812 5.296875 -2.125 C 5.296875 -2.332031 5.238281 -2.515625 5.125 -2.671875 C 5.019531 -2.835938 4.820312 -3 4.53125 -3.15625 C 4.238281 -3.320312 3.828125 -3.503906 3.296875 -3.703125 C 2.765625 -3.910156 2.3125 -4.113281 1.9375 -4.3125 C 1.5625 -4.507812 1.273438 -4.75 1.078125 -5.03125 C 0.878906 -5.320312 0.78125 -5.691406 0.78125 -6.140625 C 0.78125 -6.828125 1.054688 -7.359375 1.609375 -7.734375 C 2.171875 -8.109375 2.910156 -8.296875 3.828125 -8.296875 C 4.328125 -8.296875 4.789062 -8.242188 5.21875 -8.140625 C 5.644531 -8.035156 6.046875 -7.90625 6.421875 -7.75 L 5.96875 -6.6875 C 5.625 -6.820312 5.265625 -6.941406 4.890625 -7.046875 C 4.515625 -7.148438 4.128906 -7.203125 3.734375 -7.203125 C 3.191406 -7.203125 2.773438 -7.113281 2.484375 -6.9375 C 2.191406 -6.757812 2.046875 -6.519531 2.046875 -6.21875 C 2.046875 -5.976562 2.109375 -5.78125 2.234375 -5.625 C 2.367188 -5.476562 2.59375 -5.328125 2.90625 -5.171875 C 3.21875 -5.023438 3.628906 -4.851562 4.140625 -4.65625 C 4.660156 -4.46875 5.101562 -4.269531 5.46875 -4.0625 C 5.832031 -3.863281 6.109375 -3.617188 6.296875 -3.328125 C 6.492188 -3.046875 6.59375 -2.6875 6.59375 -2.25 Z M 6.59375 -2.25 "/></g></g></g></svg>