<svg xmlns="http://www.w3.org/2000/svg" xmlns:xlink="http://www.w3.org/1999/xlink" width="500" zoomAndPan="magnify" viewBox="0 0 375 374.999991" height="500" preserveAspectRatio="xMidYMid meet" version="1.0"><defs><clipPath id="f68cd69e47"><path d="M 3.449219 3.449219 L 371.699219 3.449219 L 371.699219 371.699219 L 3.449219 371.699219 Z M 3.449219 3.449219 " clip-rule="nonzero"/></clipPath><clipPath id="cb6e5bd08a"><path d="M 50 218 L 325 218 L 325 371.699219 L 50 371.699219 Z M 50 218 " clip-rule="nonzero"/></clipPath></defs><g clip-path="url(#f68cd69e47)"><path fill="#b3b3b3" d="M 371.714844 187.582031 C 371.714844 234.6875 354.039062 277.652344 324.929688 310.210938 C 291.21875 347.960938 242.179688 371.710938 187.585938 371.710938 C 132.988281 371.710938 83.933594 347.960938 50.238281 310.210938 C 21.132812 277.652344 3.453125 234.6875 3.453125 187.582031 C 3.453125 85.894531 85.882812 3.453125 187.585938 3.453125 C 289.269531 3.453125 371.714844 85.894531 371.714844 187.582031 " fill-opacity="1" fill-rule="nonzero"/></g><path fill="#f2f2f2" d="M 187.585938 221.5 C 220.957031 221.5 251.351562 183.742188 251.351562 142.285156 C 251.351562 103.113281 243.777344 64.378906 187.585938 64.378906 C 131.386719 64.378906 123.808594 103.113281 123.808594 142.285156 C 123.808594 183.742188 154.207031 221.5 187.585938 221.5 " fill-opacity="1" fill-rule="nonzero"/><g clip-path="url(#cb6e5bd08a)"><path fill="#f2f2f2" d="M 324.929688 310.210938 C 291.21875 347.960938 242.179688 371.710938 187.585938 371.710938 C 132.988281 371.710938 83.933594 347.960938 50.238281 310.210938 C 49.65625 287.472656 64.800781 234.78125 142.042969 218.5625 C 155.253906 232.046875 171.519531 239.675781 187.585938 239.675781 C 203.648438 239.675781 219.898438 232.046875 233.109375 218.5625 C 310.371094 234.78125 325.5 287.472656 324.929688 310.210938 " fill-opacity="1" fill-rule="nonzero"/></g></svg>