<svg width="18" height="18" viewBox="0 0 18 18" fill="none" xmlns="http://www.w3.org/2000/svg">
<path d="M9 4.5H16.875V5.625H9V4.5ZM9 12.375H16.875V13.5H9V12.375ZM5.625 7.875H2.25C1.95172 7.8747 1.66575 7.75608 1.45483 7.54517C1.24392 7.33425 1.1253 7.04828 1.125 6.75V3.375C1.1253 3.07672 1.24392 2.79075 1.45483 2.57983C1.66575 2.36892 1.95172 2.2503 2.25 2.25H5.625C5.92328 2.2503 6.20925 2.36892 6.42017 2.57983C6.63108 2.79075 6.7497 3.07672 6.75 3.375V6.75C6.7497 7.04828 6.63108 7.33425 6.42017 7.54517C6.20925 7.75608 5.92328 7.8747 5.625 7.875ZM2.25 3.375V6.75H5.62556L5.625 3.375H2.25ZM5.625 15.75H2.25C1.95172 15.7497 1.66575 15.6311 1.45483 15.4202C1.24392 15.2093 1.1253 14.9233 1.125 14.625V11.25C1.1253 10.9517 1.24392 10.6657 1.45483 10.4548C1.66575 10.2439 1.95172 10.1253 2.25 10.125H5.625C5.92328 10.1253 6.20925 10.2439 6.42017 10.4548C6.63108 10.6657 6.7497 10.9517 6.75 11.25V14.625C6.7497 14.9233 6.63108 15.2093 6.42017 15.4202C6.20925 15.6311 5.92328 15.7497 5.625 15.75ZM2.25 11.25V14.625H5.62556L5.625 11.25H2.25Z" fill="white"/>
</svg>
