<svg width="21" height="19" viewBox="0 0 21 19" fill="none" xmlns="http://www.w3.org/2000/svg">
<path d="M19.8683 16.29L16.1873 12.9C17.3749 11.5025 18.0194 9.77666 18.017 8C18.017 6.41775 17.509 4.87103 16.5573 3.55544C15.6056 2.23985 14.2529 1.21447 12.6703 0.608967C11.0877 0.00346625 9.34629 -0.15496 7.6662 0.153721C5.98612 0.462403 4.44287 1.22433 3.2316 2.34315C2.02032 3.46197 1.19544 4.88743 0.861248 6.43928C0.527059 7.99113 0.698577 9.59966 1.35411 11.0615C2.00965 12.5233 3.11976 13.7727 4.54406 14.6518C5.96837 15.5308 7.6429 16 9.35589 16C11.2794 16.0022 13.1478 15.407 14.6608 14.31L18.3309 17.71C18.4316 17.8037 18.5513 17.8781 18.6832 17.9289C18.8152 17.9797 18.9567 18.0058 19.0996 18.0058C19.2425 18.0058 19.384 17.9797 19.5159 17.9289C19.6479 17.8781 19.7676 17.8037 19.8683 17.71C19.9697 17.617 20.0503 17.5064 20.1052 17.3846C20.1602 17.2627 20.1885 17.132 20.1885 17C20.1885 16.868 20.1602 16.7373 20.1052 16.6154C20.0503 16.4936 19.9697 16.383 19.8683 16.29ZM2.86009 8C2.86009 6.81332 3.24107 5.65328 3.95483 4.66658C4.6686 3.67989 5.68311 2.91085 6.87006 2.45673C8.05701 2.0026 9.3631 1.88378 10.6232 2.11529C11.8832 2.3468 13.0407 2.91825 13.9491 3.75736C14.8576 4.59648 15.4762 5.66558 15.7269 6.82946C15.9775 7.99335 15.8489 9.19975 15.3572 10.2961C14.8656 11.3925 14.033 12.3295 12.9648 12.9888C11.8965 13.6481 10.6406 14 9.35589 14C7.6331 14 5.98087 13.3679 4.76267 12.2426C3.54447 11.1174 2.86009 9.5913 2.86009 8Z" fill="#017BFF"/>
</svg>
