<svg width="391" height="500" viewBox="0 0 391 500" fill="none" xmlns="http://www.w3.org/2000/svg">
<path d="M133.461 486.429C81.2967 519.253 -5.42064 408.76 54.4951 355.653C54.4951 290.1 -28.9332 227.771 49.8492 162.151C155.809 121.252 74.2779 19.923 174.13 0.999991C224.203 0.999993 302.289 80.2769 340.55 127.051C380.121 175.428 391 279.779 391 331.542C391 381.208 390.489 410.245 358.534 443.393C337.548 465.163 330.742 484.785 280.105 499.194C249.791 507.82 189.273 443.393 133.461 486.429Z" fill="#ECC7FF" fill-opacity="0.25"/>
<path d="M117.461 485.429C65.2967 518.253 -21.4206 407.76 38.4951 354.653C38.4951 289.1 -44.9332 226.771 33.8492 161.151C139.809 120.252 58.2779 18.923 158.13 -9.47969e-06C208.203 -7.29091e-06 286.289 79.2769 324.55 126.051C364.121 174.428 375 278.779 375 330.542C375 380.208 374.489 409.245 342.534 442.393C321.548 464.163 314.742 483.785 264.105 498.194C233.791 506.82 173.273 442.393 117.461 485.429Z" fill="#4F63E7" fill-opacity="0.25"/>
<g filter="url(#filter0_d_320_13)">
<path d="M308.338 174.283H36.9908C34.9459 174.283 33.672 176.502 34.699 178.273L182.749 433.282C183.39 434.387 184.974 434.416 185.656 433.336L374.382 134.428L185.998 353.111C185.24 353.992 183.844 353.869 183.25 352.87L92.9683 201.118C92.1305 199.71 93.1433 197.926 94.7794 197.926H247.548C249.365 197.926 250.509 199.888 249.616 201.473L186.181 314.116L310.076 178.229C311.454 176.716 310.382 174.283 308.338 174.283Z" fill="#F5F6FA"/>
</g>
<path d="M79.3425 65.7866C88.5117 73.6583 89.5634 87.4727 81.6916 96.6418C73.8199 105.811 60.0055 106.863 50.8364 98.991C41.6672 91.1192 47.7688 89.738 55.6405 80.5689C63.5123 71.3997 70.1734 57.9148 79.3425 65.7866Z" fill="#4F63E7" fill-opacity="0.25"/>
<path d="M84.1169 66.5825C93.2861 74.4542 94.3378 88.2686 86.466 97.4377C78.5943 106.607 64.7799 107.659 55.6108 99.7868C46.4417 91.9151 52.5432 90.5339 60.415 81.3648C68.2867 72.1956 74.9478 58.7107 84.1169 66.5825Z" fill="#ECC7FF" fill-opacity="0.25"/>
<path d="M60.7266 119.42C63.1457 121.497 63.4232 125.141 61.3464 127.56C59.2695 129.979 55.6249 130.257 53.2057 128.18C50.7866 126.103 50.1624 122.931 52.2392 120.512C54.316 118.093 58.3075 117.343 60.7266 119.42Z" fill="#4F63E7" fill-opacity="0.25"/>
<path d="M65.5005 120.216C67.9197 122.292 68.1971 125.937 66.1203 128.356C64.0435 130.775 60.3988 131.053 57.9797 128.976C55.5605 126.899 54.9363 123.727 57.0131 121.308C59.09 118.889 63.0814 118.139 65.5005 120.216Z" fill="#ECC7FF" fill-opacity="0.25"/>
<defs>
<filter id="filter0_d_320_13" x="29.3359" y="133.428" width="350.045" height="309.701" filterUnits="userSpaceOnUse" color-interpolation-filters="sRGB">
<feFlood flood-opacity="0" result="BackgroundImageFix"/>
<feColorMatrix in="SourceAlpha" type="matrix" values="0 0 0 0 0 0 0 0 0 0 0 0 0 0 0 0 0 0 127 0" result="hardAlpha"/>
<feOffset dy="4"/>
<feGaussianBlur stdDeviation="2.5"/>
<feComposite in2="hardAlpha" operator="out"/>
<feColorMatrix type="matrix" values="0 0 0 0 0.529167 0 0 0 0 0.529167 0 0 0 0 0.529167 0 0 0 0.25 0"/>
<feBlend mode="normal" in2="BackgroundImageFix" result="effect1_dropShadow_320_13"/>
<feBlend mode="normal" in="SourceGraphic" in2="effect1_dropShadow_320_13" result="shape"/>
</filter>
</defs>
</svg>
