<?xml version="1.0" standalone="no"?>
<!DOCTYPE svg PUBLIC "-//W3C//DTD SVG 20010904//EN"
 "http://www.w3.org/TR/2001/REC-SVG-20010904/DTD/svg10.dtd">
<svg version="1.0" xmlns="http://www.w3.org/2000/svg"
 width="300.000000pt" height="80.000000pt" viewBox="0 0 300.000000 80.000000"
 preserveAspectRatio="xMidYMid meet">

<g transform="translate(0.000000,80.000000) scale(0.100000,-0.100000)"
fill="#000000" stroke="none">
<path d="M203 662 c-127 -46 -196 -143 -196 -277 1 -156 109 -272 264 -283 95
-7 159 17 226 83 63 64 88 134 81 230 -15 184 -203 308 -375 247z m189 -41
c82 -35 158 -148 158 -236 0 -57 -33 -128 -80 -176 -103 -103 -258 -102 -356
3 -120 127 -88 320 65 400 65 34 147 38 213 9z"/>
<path d="M236 558 c-9 -12 -16 -33 -16 -45 0 -29 28 -30 32 -2 7 48 68 51 68
4 0 -16 6 -25 15 -25 22 0 19 53 -3 73 -27 25 -78 22 -96 -5z"/>
<path d="M170 465 c0 -8 9 -15 20 -15 19 0 20 -7 20 -90 0 -83 -1 -90 -20 -90
-11 0 -20 -7 -20 -15 0 -9 9 -15 24 -15 18 0 26 -6 28 -22 4 -30 26 -34 30 -6
2 18 10 24 35 26 26 3 32 -1 35 -20 4 -29 22 -30 26 -2 2 12 11 24 22 27 10 2
26 17 36 32 17 26 17 29 1 57 -12 22 -14 34 -7 48 15 29 12 65 -8 83 -26 24
-222 25 -222 2z m155 -102 c0 -51 -1 -53 -27 -53 -27 0 -28 2 -28 56 0 54 0
55 28 52 26 -3 27 -6 27 -55z"/>
<path d="M755 508 c-3 -13 -14 -66 -25 -118 -11 -52 -22 -105 -25 -117 -5 -23
-4 -23 96 -23 98 0 101 1 130 29 33 33 38 74 13 102 -14 16 -14 19 5 38 25 25
27 73 5 95 -12 12 -37 16 -105 16 -84 0 -89 -1 -94 -22z m139 -24 c19 -7 21
-35 4 -52 -16 -16 -98 -16 -98 1 1 41 13 57 45 57 19 0 40 -3 49 -6z m-20
-114 c29 -11 34 -41 11 -60 -19 -16 -100 -25 -108 -13 -4 6 -2 26 4 46 8 32
14 37 39 37 16 0 40 -4 54 -10z"/>
<path d="M1040 509 c0 -16 5 -20 27 -17 17 2 29 10 31 21 3 13 -3 17 -27 17
-25 0 -31 -4 -31 -21z"/>
<path d="M1756 514 c-9 -23 -8 -24 23 -24 20 0 30 6 34 20 4 16 0 20 -23 20
-16 0 -30 -7 -34 -16z"/>
<path d="M1157 491 c-4 -17 -14 -30 -26 -34 -25 -6 -28 -37 -5 -37 13 0 15 -6
10 -27 -3 -16 -9 -51 -12 -79 -6 -47 -4 -53 16 -64 30 -16 70 -5 70 20 0 12
-7 20 -16 20 -14 0 -16 8 -10 56 8 67 11 74 37 74 12 0 19 7 19 20 0 12 -7 20
-16 20 -13 0 -15 7 -10 30 5 28 3 30 -23 30 -23 0 -30 -5 -34 -29z"/>
<path d="M2117 503 c-4 -3 -7 -15 -7 -25 0 -10 -10 -23 -22 -28 -18 -7 -19 -9
-5 -9 21 -1 21 -10 2 -81 -19 -71 -19 -106 1 -114 23 -9 34 -7 34 4 0 6 -9 10
-20 10 -24 0 -24 11 -2 105 15 58 21 70 42 76 l25 7 -24 1 c-21 1 -23 5 -17
31 6 31 4 35 -7 23z"/>
<path d="M1020 403 c-6 -32 -16 -74 -21 -93 -14 -55 -12 -62 19 -58 25 3 28 8
44 78 24 111 23 130 -6 130 -22 0 -26 -6 -36 -57z"/>
<path d="M1308 445 c-53 -30 -76 -124 -43 -172 20 -28 76 -39 116 -23 28 12
59 44 59 62 0 16 -44 7 -66 -13 -43 -40 -82 -2 -64 62 18 61 53 76 89 38 24
-26 57 -22 53 6 -2 11 -10 26 -17 34 -20 20 -95 24 -127 6z"/>
<path d="M1515 428 c-70 -66 -53 -168 32 -184 43 -8 95 14 118 50 9 14 17 46
18 72 0 39 -4 51 -27 71 -41 35 -97 32 -141 -9z m108 -29 c5 -9 7 -32 3 -52
-15 -79 -96 -86 -96 -9 0 66 64 107 93 61z"/>
<path d="M1936 453 c-4 -4 -26 -7 -49 -8 l-42 0 -17 -80 c-23 -109 -23 -115 6
-115 26 0 27 1 46 88 13 56 43 88 74 76 19 -7 19 -20 2 -101 l-14 -63 28 0
c25 0 28 4 43 75 21 93 21 100 1 119 -16 16 -65 22 -78 9z"/>
<path d="M1726 363 c-10 -49 -19 -94 -22 -100 -2 -9 7 -13 26 -13 17 0 30 2
30 5 0 9 30 158 36 178 4 13 -1 17 -24 17 -28 0 -29 -2 -46 -87z"/>
<path d="M2211 434 c-52 -37 -67 -129 -26 -169 67 -68 165 4 165 121 0 56 -85
85 -139 48z m107 -7 c23 -27 24 -65 3 -111 -22 -51 -55 -72 -95 -62 -61 15
-71 95 -20 156 20 24 34 30 64 30 21 0 42 -6 48 -13z"/>
<path d="M2380 446 c0 -2 9 -48 20 -101 19 -95 20 -99 2 -129 -10 -16 -29 -33
-42 -37 -21 -6 -22 -7 -4 -8 32 -2 46 16 119 144 37 66 70 123 72 128 2 4 1 7
-4 7 -4 0 -30 -41 -58 -90 -29 -53 -52 -84 -56 -77 -4 7 -13 47 -19 90 -7 42
-17 77 -21 77 -5 0 -9 -2 -9 -4z"/>
<path d="M2581 415 c-26 -30 -31 -44 -31 -85 0 -61 24 -90 74 -90 46 0 93 40
106 91 20 73 -10 119 -76 119 -36 0 -47 -5 -73 -35z m124 8 c13 -13 16 -28 12
-67 -3 -40 -11 -55 -36 -78 -17 -15 -42 -28 -56 -28 -78 0 -88 120 -15 177 22
18 76 16 95 -4z"/>
<path d="M2776 370 c-16 -75 -17 -83 -2 -105 21 -32 63 -33 101 -3 l27 21 -7
-24 c-5 -16 -4 -21 3 -14 5 6 18 46 27 90 9 44 19 88 22 99 3 10 1 16 -5 12
-5 -3 -14 -31 -21 -63 -14 -73 -43 -121 -77 -129 -59 -15 -75 29 -51 135 8 33
11 61 7 61 -4 0 -15 -36 -24 -80z"/>
</g>
</svg>
